<?xml version="1.0" encoding="UTF-8" standalone="no"?>
<svg
   xmlns:dc="http://purl.org/dc/elements/1.1/"
   xmlns:cc="http://creativecommons.org/ns#"
   xmlns:rdf="http://www.w3.org/1999/02/22-rdf-syntax-ns#"
   xmlns:svg="http://www.w3.org/2000/svg"
   xmlns="http://www.w3.org/2000/svg"
   xmlns:sodipodi="http://sodipodi.sourceforge.net/DTD/sodipodi-0.dtd"
   xmlns:inkscape="http://www.inkscape.org/namespaces/inkscape"
   width="2.6952057in"
   height="2.601181in"
   viewBox="0 0 194.05465 187.28507"
   version="1.1"
   id="svg3"
   sodipodi:docname="nokogiri-serif-white.svg"
   inkscape:version="0.92.3 (2405546, 2018-03-11)">
  <metadata
     id="metadata9">
    <rdf:RDF>
      <cc:Work
         rdf:about="">
        <dc:format>image/svg+xml</dc:format>
        <dc:type
           rdf:resource="http://purl.org/dc/dcmitype/StillImage" />
        <dc:title />
      </cc:Work>
    </rdf:RDF>
  </metadata>
  <defs
     id="defs7" />
  <sodipodi:namedview
     pagecolor="#ffffff"
     bordercolor="#666666"
     borderopacity="1"
     objecttolerance="10"
     gridtolerance="10"
     guidetolerance="10"
     inkscape:pageopacity="0"
     inkscape:pageshadow="2"
     inkscape:window-width="1087"
     inkscape:window-height="624"
     id="namedview5"
     showgrid="false"
     inkscape:zoom="0.54798773"
     inkscape:cx="15.866034"
     inkscape:cy="116.37347"
     inkscape:window-x="363"
     inkscape:window-y="331"
     inkscape:window-maximized="0"
     inkscape:current-layer="svg3" />
  <path
     id="Path"
     d="m 124.714,128.11498 c 0,0 0,38.39 0,38.39 0,0 39.21,0 39.21,0 0,0 0,-38.39 0,-38.39 0,0 -39.21,0 -39.21,0 z m -17.79,-108.8 c 0,0 0,27.39 0,27.39 0,0 58.59,0 58.59,0 0,0 0,-27.39 0,-27.39 0,0 -58.59,0 -58.59,0 z m 45.39,73.19 c 0,0 0,30 0,30 0,0 9.79,0 9.79,0 0,0 8.61,-9.38 8.61,-9.38 0,0 18.21,13.99 18.21,13.99 -1,1.39 -3.61,2.77 -6.82,3.34 0,0 0,48.69 0,48.69 -0.18,1.41 -9.39,4.83 -15.18,4.83 0,0 -3,0 -3,0 0,0 0,-11.66 0,-11.66 0,0 -39.21,0 -39.21,0 0,0 0,8.83 0,8.83 0,1.61 -7.61,5.64 -15,5.64 0,0 -2.61,0 -2.61,0 0,0 0,-72.03 0,-72.03 0,0 18.61,7.75 18.61,7.75 0,0 9.21,0 9.21,0 0,0 0,-30 0,-30 0,0 -28.82,0 -28.82,0 -2,32.41 -10.000002,67.66 -37.790002,93.27 0,0 -2.8,-2 -2.8,-2 6,-9.46 10.59,-19.52 14,-30.16 -14,7.16 -33,16.7 -58.2,27.94 -0.8,2.42 -2.6,4.01 -4.6,4.83 0,0 -11.9999996,-21.5 -11.9999996,-21.5 6.5999996,-1.24 17.7999996,-3.49 31.2099996,-6.36 0,0 0,-63.02 0,-63.02 0,0 -27.4099996,0 -27.4099996,0 0,0 -1.59,-5.8 -1.59,-5.8 0,0 28.9999996,0 28.9999996,0 0,0 0,-24.39 0,-24.39 0,0 -14.61,0 -14.61,0 0,0 -1.6,-5.61 -1.6,-5.61 -5.2,5.61 -10.7899996,10.49 -16.6099996,14.58 0,0 -2.38999996,-1.75 -2.38999996,-1.75 14.79999956,-18.72 28.79999956,-51.22 33.59999956,-71.88999988 0,0 24.61,8.04999998 24.61,8.04999998 -0.61,2.3999999 -2.82,3.8099999 -7.82,4.0099999 49.610002,15.41 31.21,43.08 17.61,32.61 -3.2,-7.79 -10.4,-18.79 -19.79,-28.4 -6.82,13.79 -16.82,29.2 -29,42.59 0,0 32.59,0 32.59,0 0,0 9.41,-13.19 9.41,-13.19 0,0 10.39,9.25 16.79,15.8 -0.61,2.2 -2.61,3.2 -5.4,3.2 0,0 -21.39,0 -21.39,0 0,0 0,24.39 0,24.39 0,0 7,0 7,0 0,0 9.18,-12.87 9.18,-12.87 0,0 10.61,9.17 16.82,15.48 -0.61,2.21 -2.41,3.19 -5.21,3.19 0,0 -27.79,0 -27.79,0 0,0 0,59.33 0,59.33 9.18,-2.05 19.18,-4.3 29.18,-6.52 7.61,-25.81 8.82,-54.78 8.82,-81.43 0,0 0,-61.2099999 0,-61.2099999 0,0 19.790002,7.8299999 19.790002,7.8299999 0,0 54,0 54,0 0,0 7.8,-9.6399999 7.8,-9.6399999 0,0 19.2,13.8399999 19.2,13.8399999 -1.4,1.61 -3.4,3 -7.4,3.41 0,0 0,35.11 0,35.11 0,1.09 -5.8,4.69 -14.8,4.69 0,0 -3,0 -3,0 0,0 0,-8.41 0,-8.41 0,0 -58.59,0 -58.59,0 0,0 0,14.38 0,14.38 0,6.28 0,12.96 -0.41,19.82 0,0 28.41,0 28.41,0 0,0 0,-28.29 0,-28.29 0,0 24.18,2.29 24.18,2.29 -0.39,2.8 -2.18,4.61 -6.79,5.58 0,0 0,20.42 0,20.42 0,0 12.2,0 12.2,0 0,0 10.41,-13.54 10.41,-13.54 0,0 11.59,9.42 18.59,16.15 -0.41,2.21 -2.59,3.19 -5.2,3.19 0,0 -36,0 -36,0 z m -138.390002,12.86 c 29.79,27.25 12.79,54.39 1.39,40.34 1.61,-12.51 -1,-28.29 -4,-39.72 0,0 2.61,-0.62 2.61,-0.62 z m 42.18,38.78 c 2.21,-10.17 4.61,-25.92 6.21,-40 0,0 21.2,6.53 21.2,6.53 -1,2.25 -3.2,4.08 -7.41,4.28 -4.59,10.55 -10.59,22.16 -16.59,30.57 0,0 -3.41,-1.38 -3.41,-1.38 z"
     style="fill:#ffffff;fill-opacity:1;stroke:#000000;stroke-width:1"
     inkscape:connector-curvature="0" />
</svg>
