<?xml version="1.0" encoding="UTF-8" standalone="no"?>
<svg
   xmlns:dc="http://purl.org/dc/elements/1.1/"
   xmlns:cc="http://creativecommons.org/ns#"
   xmlns:rdf="http://www.w3.org/1999/02/22-rdf-syntax-ns#"
   xmlns:svg="http://www.w3.org/2000/svg"
   xmlns="http://www.w3.org/2000/svg"
   xmlns:sodipodi="http://sodipodi.sourceforge.net/DTD/sodipodi-0.dtd"
   xmlns:inkscape="http://www.inkscape.org/namespaces/inkscape"
   width="2.77778in"
   height="4.48611in"
   viewBox="0 0 200 323"
   version="1.1"
   id="svg3"
   sodipodi:docname="nokogiri-serif-white.svg"
   inkscape:version="0.92.3 (2405546, 2018-03-11)">
  <metadata
     id="metadata9">
    <rdf:RDF>
      <cc:Work
         rdf:about="">
        <dc:format>image/svg+xml</dc:format>
        <dc:type
           rdf:resource="http://purl.org/dc/dcmitype/StillImage" />
        <dc:title></dc:title>
      </cc:Work>
    </rdf:RDF>
  </metadata>
  <defs
     id="defs7" />
  <sodipodi:namedview
     pagecolor="#ffffff"
     bordercolor="#666666"
     borderopacity="1"
     objecttolerance="10"
     gridtolerance="10"
     guidetolerance="10"
     inkscape:pageopacity="0"
     inkscape:pageshadow="2"
     inkscape:window-width="1087"
     inkscape:window-height="624"
     id="namedview5"
     showgrid="false"
     inkscape:zoom="0.54798773"
     inkscape:cx="107.78543"
     inkscape:cy="215.33329"
     inkscape:window-x="363"
     inkscape:window-y="331"
     inkscape:window-maximized="0"
     inkscape:current-layer="svg3" />
  <path
     id="Path"
     fill="none"
     stroke="black"
     stroke-width="1"
     d="M 126.59,189.61            C 126.59,189.61 126.59,228.00 126.59,228.00              126.59,228.00 165.80,228.00 165.80,228.00              165.80,228.00 165.80,189.61 165.80,189.61              165.80,189.61 126.59,189.61 126.59,189.61 Z            M 108.80,80.81            C 108.80,80.81 108.80,108.20 108.80,108.20              108.80,108.20 167.39,108.20 167.39,108.20              167.39,108.20 167.39,80.81 167.39,80.81              167.39,80.81 108.80,80.81 108.80,80.81 Z            M 154.19,154.00            C 154.19,154.00 154.19,184.00 154.19,184.00              154.19,184.00 163.98,184.00 163.98,184.00              163.98,184.00 172.59,174.62 172.59,174.62              172.59,174.62 190.80,188.61 190.80,188.61              189.80,190.00 187.19,191.38 183.98,191.95              183.98,191.95 183.98,240.64 183.98,240.64              183.80,242.05 174.59,245.47 168.80,245.47              168.80,245.47 165.80,245.47 165.80,245.47              165.80,245.47 165.80,233.81 165.80,233.81              165.80,233.81 126.59,233.81 126.59,233.81              126.59,233.81 126.59,242.64 126.59,242.64              126.59,244.25 118.98,248.28 111.59,248.28              111.59,248.28 108.98,248.28 108.98,248.28              108.98,248.28 108.98,176.25 108.98,176.25              108.98,176.25 127.59,184.00 127.59,184.00              127.59,184.00 136.80,184.00 136.80,184.00              136.80,184.00 136.80,154.00 136.80,154.00              136.80,154.00 107.98,154.00 107.98,154.00              105.98,186.41 97.98,221.66 70.19,247.27              70.19,247.27 67.39,245.27 67.39,245.27              73.39,235.81 77.98,225.75 81.39,215.11              67.39,222.27 48.39,231.81 23.19,243.05              22.39,245.47 20.59,247.06 18.59,247.88              18.59,247.88 6.59,226.38 6.59,226.38              13.19,225.14 24.39,222.89 37.80,220.02              37.80,220.02 37.80,157.00 37.80,157.00              37.80,157.00 10.39,157.00 10.39,157.00              10.39,157.00 8.80,151.20 8.80,151.20              8.80,151.20 37.80,151.20 37.80,151.20              37.80,151.20 37.80,126.81 37.80,126.81              37.80,126.81 23.19,126.81 23.19,126.81              23.19,126.81 21.59,121.20 21.59,121.20              16.39,126.81 10.80,131.69 4.98,135.78              4.98,135.78 2.59,134.03 2.59,134.03              17.39,115.31 31.39,82.81 36.19,62.14              36.19,62.14 60.80,70.19 60.80,70.19              60.19,72.59 57.98,74.00 52.98,74.20              102.59,89.61 84.19,117.28 70.59,106.81              67.39,99.02 60.19,88.02 50.80,78.41              43.98,92.20 33.98,107.61 21.80,121.00              21.80,121.00 54.39,121.00 54.39,121.00              54.39,121.00 63.80,107.81 63.80,107.81              63.80,107.81 74.19,117.06 80.59,123.61              79.98,125.81 77.98,126.81 75.19,126.81              75.19,126.81 53.80,126.81 53.80,126.81              53.80,126.81 53.80,151.20 53.80,151.20              53.80,151.20 60.80,151.20 60.80,151.20              60.80,151.20 69.98,138.33 69.98,138.33              69.98,138.33 80.59,147.50 86.80,153.81              86.19,156.02 84.39,157.00 81.59,157.00              81.59,157.00 53.80,157.00 53.80,157.00              53.80,157.00 53.80,216.33 53.80,216.33              62.98,214.28 72.98,212.03 82.98,209.81              90.59,184.00 91.80,155.03 91.80,128.38              91.80,128.38 91.80,67.17 91.80,67.17              91.80,67.17 111.59,75.00 111.59,75.00              111.59,75.00 165.59,75.00 165.59,75.00              165.59,75.00 173.39,65.36 173.39,65.36              173.39,65.36 192.59,79.20 192.59,79.20              191.19,80.81 189.19,82.20 185.19,82.61              185.19,82.61 185.19,117.72 185.19,117.72              185.19,118.81 179.39,122.41 170.39,122.41              170.39,122.41 167.39,122.41 167.39,122.41              167.39,122.41 167.39,114.00 167.39,114.00              167.39,114.00 108.80,114.00 108.80,114.00              108.80,114.00 108.80,128.38 108.80,128.38              108.80,134.66 108.80,141.34 108.39,148.20              108.39,148.20 136.80,148.20 136.80,148.20              136.80,148.20 136.80,119.91 136.80,119.91              136.80,119.91 160.98,122.20 160.98,122.20              160.59,125.00 158.80,126.81 154.19,127.78              154.19,127.78 154.19,148.20 154.19,148.20              154.19,148.20 166.39,148.20 166.39,148.20              166.39,148.20 176.80,134.66 176.80,134.66              176.80,134.66 188.39,144.08 195.39,150.81              194.98,153.02 192.80,154.00 190.19,154.00              190.19,154.00 154.19,154.00 154.19,154.00 Z            M 15.80,166.86            C 45.59,194.11 28.59,221.25 17.19,207.20              18.80,194.69 16.19,178.91 13.19,167.48              13.19,167.48 15.80,166.86 15.80,166.86 Z            M 57.98,205.64            C 60.19,195.47 62.59,179.72 64.19,165.64              64.19,165.64 85.39,172.17 85.39,172.17              84.39,174.42 82.19,176.25 77.98,176.45              73.39,187.00 67.39,198.61 61.39,207.02              61.39,207.02 57.98,205.64 57.98,205.64 Z"
     style="fill:#ffffff;fill-opacity:1" />
</svg>
